<svg width="40" height="40" viewBox="0 0 40 40" fill="none" xmlns="http://www.w3.org/2000/svg">
<path d="M20.0002 23.3355C21.842 23.3355 23.3352 21.8423 23.3352 20.0005C23.3352 18.1586 21.842 16.6655 20.0002 16.6655C18.1583 16.6655 16.6652 18.1586 16.6652 20.0005C16.6652 21.8423 18.1583 23.3355 20.0002 23.3355Z" fill="black"/>
<path d="M33.0935 20.0005C37.0602 13.6605 37.7868 8.00714 34.8902 5.1088C31.9118 2.1288 26.1518 2.99714 20.0002 6.86214C13.8485 2.9988 8.09015 2.13214 5.11015 5.1088C2.12682 8.09214 3.00182 13.8655 6.88182 20.0288C5.35015 22.4838 4.24349 24.9071 3.71182 27.0871C2.67515 31.3438 3.90015 33.6805 5.11015 34.8905C6.30349 36.0838 7.95849 36.6688 9.93682 36.6688C12.7702 36.6688 16.2652 35.4538 20.0002 33.1138C23.7335 35.4488 27.2335 36.6621 30.0668 36.6621C32.0452 36.6621 33.7018 36.0788 34.8902 34.8905C37.7885 31.9938 37.0618 26.3405 33.0935 20.0005ZM7.46849 32.5338C6.31349 31.3771 6.65015 29.1221 6.95182 27.8771C7.31515 26.3855 8.01349 24.7305 8.97515 23.0121C10.0818 24.4405 11.3268 25.8705 12.7285 27.2721C13.0535 27.5971 13.4802 27.7605 13.9068 27.7605C14.3335 27.7605 14.7602 27.5971 15.0852 27.2721C15.7368 26.6205 15.7368 25.5655 15.0852 24.9138C11.5835 21.4121 8.90849 17.5421 7.55182 14.0138C6.39849 11.0138 6.36682 8.56714 7.46849 7.46547C8.93349 6.00214 12.6402 6.56714 16.9768 8.98047C15.5502 10.0888 14.1252 11.3288 12.7268 12.7271C12.0752 13.3788 12.0752 14.4338 12.7268 15.0855C13.3785 15.7371 14.4335 15.7371 15.0852 15.0855C16.7085 13.4621 18.3702 12.0771 20.0002 10.9121C21.6302 12.0755 23.2918 13.4621 24.9152 15.0855C25.5668 15.7371 26.6218 15.7371 27.2735 15.0855C27.9252 14.4338 27.9252 13.3788 27.2735 12.7271C25.8752 11.3288 24.4485 10.0871 23.0235 8.98214C27.3602 6.56714 31.0685 6.00214 32.5335 7.46714C34.2935 9.2288 33.1518 14.0021 29.7568 19.0738C29.7552 19.0771 29.7502 19.0821 29.7502 19.0821L29.7468 19.0871C29.1385 19.9921 28.4618 20.9055 27.7318 21.8021C26.8635 22.8688 25.9168 23.9171 24.9168 24.9155C24.0585 25.7721 23.1668 26.5905 22.2668 27.3488C21.2335 28.2171 20.1802 29.0121 19.1352 29.7138C14.0352 33.1455 9.24015 34.3021 7.46849 32.5338ZM32.5335 32.5338C31.0218 34.0471 27.2552 33.4038 23.0002 31.0255C23.4718 30.6621 23.9452 30.2921 24.4102 29.9021C25.3835 29.0838 26.3468 28.1988 27.2735 27.2738C28.3518 26.1955 29.3768 25.0638 30.3168 23.9088C30.5602 23.6088 30.7885 23.3055 31.0218 23.0021C33.4018 27.2571 34.0502 31.0155 32.5335 32.5338Z" fill="black"/>
</svg>
