<svg width="40" height="40" viewBox="0 0 40 40" fill="none" xmlns="http://www.w3.org/2000/svg">
<path fill-rule="evenodd" clip-rule="evenodd" d="M18.3465 9.2073C15.8207 9.2073 15.5681 9.49096 14.2608 9.49096C13.1719 9.49096 9.90202 6.66699 8.26876 6.66699C6.63379 6.66699 4.72747 7.6842 4.72747 10.6202V14.0079C4.73088 14.8968 5.03466 17.6214 6.22932 16.8933C4.81792 18.6603 4.67627 20.7218 4.69504 22.7165C4.31446 22.8321 3.92705 22.964 3.54988 23.0995C2.38254 23.5223 1.14351 24.0607 0.58544 24.4437C0.300283 24.6388 0.0999862 24.9457 0.0286132 25.2971C-0.0427597 25.6485 0.0206374 26.0155 0.204858 26.3174C0.389079 26.6192 0.679032 26.8313 1.01093 26.9068C1.34283 26.9824 1.68949 26.9153 1.97465 26.7203C2.24089 26.5378 3.20514 26.0879 4.37761 25.6633L4.76672 25.5278C4.84523 26.3101 5.04149 27.0274 5.33333 27.6778L5.29237 27.7013C4.59264 28.0916 3.94412 28.5415 3.53111 28.8269L3.33826 28.9606C3.0531 29.1557 2.8528 29.4626 2.78143 29.814C2.71006 30.1654 2.77346 30.5324 2.95768 30.8343C3.1419 31.1361 3.43185 31.3482 3.76375 31.4238C4.09565 31.4993 4.44231 31.4322 4.72747 31.2372L4.95104 31.0818C5.36917 30.7927 5.90505 30.4223 6.48873 30.0971C6.62526 30.0194 6.75667 29.9507 6.88296 29.8875C9.83546 32.8199 15.138 33.7684 18.3465 33.7684C21.555 33.7684 26.8575 32.8199 29.81 29.8875C29.9363 29.9507 30.066 30.0194 30.2043 30.0971C30.7879 30.4223 31.3238 30.7927 31.742 31.0818L31.9655 31.2372C32.2507 31.4322 32.5973 31.4993 32.9292 31.4238C33.2611 31.3482 33.5511 31.1361 33.7353 30.8343C33.9195 30.5324 33.9829 30.1654 33.9116 29.814C33.8402 29.4626 33.6399 29.1557 33.3547 28.9606L33.1619 28.8269C32.5915 28.4231 32.0038 28.0475 31.4006 27.7013L31.3597 27.6778C31.6515 27.0274 31.8478 26.3101 31.9263 25.5278L32.3154 25.6633C33.4879 26.0879 34.4521 26.5378 34.7201 26.7203C35.0051 26.9043 35.3468 26.9632 35.6722 26.8844C35.9977 26.8055 36.2812 26.5952 36.4622 26.2982C36.6432 26.0011 36.7075 25.641 36.6412 25.2946C36.575 24.9481 36.3835 24.6428 36.1076 24.4437C35.5495 24.0607 34.3105 23.5223 33.1448 23.0995C32.7652 22.9625 32.3828 22.8342 31.998 22.7147C32.0184 20.72 31.8751 18.6603 30.462 16.8933C31.6566 17.6214 31.9638 14.8968 31.9655 14.0061V10.6202C31.9655 7.6842 30.0592 6.66699 28.4242 6.66699C26.791 6.66699 23.521 9.49096 22.4339 9.49096C21.1249 9.49096 20.8723 9.2073 18.3465 9.2073ZM17.1945 25.8187C17.5393 25.694 17.9471 25.638 18.3465 25.638C18.7459 25.638 19.1537 25.694 19.5002 25.8187C19.6709 25.8801 19.8757 25.9777 20.06 26.1331C20.1863 26.234 20.2897 26.3636 20.3623 26.5125C20.435 26.6613 20.4752 26.8256 20.4798 26.9931C20.4798 27.4086 20.2426 27.6977 20.06 27.8531C19.8774 28.0085 19.6691 28.106 19.5002 28.1675C19.1272 28.2924 18.7377 28.3534 18.3465 28.3482C17.9558 28.3535 17.5669 28.2925 17.1945 28.1675C16.9915 28.0979 16.8016 27.9916 16.633 27.8531C16.5067 27.7522 16.4033 27.6225 16.3307 27.4737C16.258 27.3248 16.2178 27.1606 16.2132 26.9931C16.2132 26.5775 16.4504 26.2884 16.633 26.1331C16.8156 25.9777 17.0256 25.8801 17.1945 25.8187ZM22.0499 20.2177C22.2837 19.8058 22.7428 19.3143 23.4323 19.3143C24.1218 19.3143 24.5826 19.8058 24.8147 20.2177C25.057 20.6495 25.1731 21.1699 25.1731 21.6866C25.1731 22.2015 25.057 22.7219 24.8147 23.1519C24.5826 23.5656 24.1218 24.0571 23.4323 24.0571C22.7428 24.0571 22.2837 23.5656 22.0499 23.1537C21.8087 22.7067 21.685 22.1995 21.6915 21.6848C21.6915 21.1699 21.8076 20.6495 22.0499 20.2195V20.2177ZM11.8783 20.2177C12.1121 19.8058 12.5712 19.3143 13.2607 19.3143C13.9502 19.3143 14.411 19.8058 14.6431 20.2177C14.8854 20.6495 15.0015 21.1699 15.0015 21.6866C15.0015 22.2015 14.8854 22.7219 14.6431 23.1519C14.411 23.5656 13.9502 24.0571 13.2607 24.0571C12.5712 24.0571 12.1121 23.5656 11.8783 23.1537C11.6371 22.7067 11.5134 22.1995 11.5199 21.6848C11.5199 21.1699 11.636 20.6495 11.8783 20.2195V20.2177Z" fill="black"/>
</svg>
