<svg width="40" height="40" viewBox="0 0 40 40" fill="none" xmlns="http://www.w3.org/2000/svg">
<path d="M21.9018 10.6362L4.09016 28.1508C3.4385 28.7916 3.4385 29.8274 4.09016 30.4681L8.8035 35.1029C9.1285 35.4224 9.55516 35.5831 9.98183 35.5831C10.4085 35.5831 10.8352 35.4224 11.1602 35.1029L28.9718 17.5883L21.9018 10.6362Z" fill="black"/>
<path d="M35.9102 10.7657C36.5618 10.1249 36.5618 9.08912 35.9102 8.44832L31.1968 3.81361C30.5452 3.17281 29.4918 3.17281 28.8402 3.81361L24.2585 8.31885L31.3285 15.2709L35.9102 10.7657Z" fill="black"/>
<path d="M30.0002 30.1109H28.3335V28.472C28.3335 27.5657 27.5885 26.8331 26.6668 26.8331C25.7452 26.8331 25.0002 27.5657 25.0002 28.472V30.1109H23.3335C22.4118 30.1109 21.6668 30.8434 21.6668 31.7497C21.6668 32.656 22.4118 33.3886 23.3335 33.3886H25.0002V35.0275C25.0002 35.9338 25.7452 36.6663 26.6668 36.6663C27.5885 36.6663 28.3335 35.9338 28.3335 35.0275V33.3886H30.0002C30.9218 33.3886 31.6668 32.656 31.6668 31.7497C31.6668 30.8434 30.9218 30.1109 30.0002 30.1109Z" fill="black"/>
<path d="M5.00016 16.9999H6.66683V18.6388C6.66683 19.5451 7.41183 20.2777 8.3335 20.2777C9.25516 20.2777 10.0002 19.5451 10.0002 18.6388V16.9999H11.6668C12.5885 16.9999 13.3335 16.2674 13.3335 15.3611C13.3335 14.4548 12.5885 13.7222 11.6668 13.7222H10.0002V12.0833C10.0002 11.177 9.25516 10.4445 8.3335 10.4445C7.41183 10.4445 6.66683 11.177 6.66683 12.0833V13.7222H5.00016C4.0785 13.7222 3.3335 14.4548 3.3335 15.3611C3.3335 16.2674 4.0785 16.9999 5.00016 16.9999Z" fill="black"/>
<path d="M31.6668 21.9165H28.3335V25.1943H31.6668V21.9165Z" fill="black"/>
<path d="M21.6668 3.88899H18.3335V7.16673H21.6668V3.88899Z" fill="black"/>
<path d="M16.6668 7.16673H13.3335V10.4445H16.6668V7.16673Z" fill="black"/>
<path d="M11.6668 3.88899H8.3335V7.16673H11.6668V3.88899Z" fill="black"/>
<path d="M36.6668 16.9999H33.3335V20.2777H36.6668V16.9999Z" fill="black"/>
<path d="M36.6668 25.1943H33.3335V28.472H36.6668V25.1943Z" fill="black"/>
</svg>
