<svg width="14" height="14" viewBox="0 0 14 14" fill="none" xmlns="http://www.w3.org/2000/svg">
<path d="M8.05797 6.64645L7.70441 7L8.05797 7.35355L13.3381 12.6337C13.4273 12.7274 13.4766 12.8521 13.4754 12.9815C13.4743 13.1122 13.4219 13.2372 13.3295 13.3295L13.6831 13.6831L13.3295 13.3295C13.2372 13.4219 13.1122 13.4743 12.9815 13.4754C12.8521 13.4766 12.7274 13.4273 12.6337 13.3381L7.35355 8.05797L7 7.70441L6.64645 8.05797L1.36272 13.3417L1.36267 13.3416L1.35663 13.3479C1.31067 13.3955 1.25569 13.4334 1.1949 13.4595C1.13411 13.4857 1.06873 13.4994 1.00258 13.5C0.936419 13.5006 0.87081 13.4879 0.809578 13.4629C0.748348 13.4378 0.692717 13.4008 0.645933 13.3541C0.599152 13.3073 0.562155 13.2517 0.537103 13.1904C0.51205 13.1292 0.499444 13.0636 0.500019 12.9974C0.500594 12.9313 0.514338 12.8659 0.540451 12.8051C0.566564 12.7443 0.604522 12.6893 0.652111 12.6434L0.652163 12.6434L0.658307 12.6373L5.94203 7.35355L6.29559 7L5.94203 6.64645L0.661905 1.36632C0.572719 1.27263 0.523427 1.14789 0.524552 1.01845C0.525687 0.887813 0.578087 0.762846 0.670467 0.670467C0.762846 0.578087 0.887813 0.525687 1.01845 0.524552C1.14789 0.523427 1.27263 0.572719 1.36632 0.661905L6.64645 5.94203L7 6.29559L7.35355 5.94203L12.6373 0.658307L12.6373 0.65836L12.6434 0.652111C12.6893 0.604522 12.7443 0.566564 12.8051 0.540451C12.8659 0.514338 12.9313 0.500594 12.9974 0.500019C13.0636 0.499444 13.1292 0.51205 13.1904 0.537102C13.2517 0.562155 13.3073 0.599152 13.3541 0.645933C13.4008 0.692717 13.4378 0.748348 13.4629 0.809578C13.4879 0.87081 13.5006 0.936419 13.5 1.00258C13.4994 1.06873 13.4857 1.13411 13.4595 1.1949C13.4334 1.25569 13.3955 1.31067 13.3479 1.35663L13.3478 1.35658L13.3417 1.36272L8.05797 6.64645Z" fill="black" stroke="black"/>
</svg>
