<svg width="19" height="20" viewBox="0 0 19 20" fill="none" xmlns="http://www.w3.org/2000/svg">
<path d="M17.1719 4.21053H13.1719V2.10526C13.1719 1.54691 12.9612 1.01143 12.5861 0.616617C12.211 0.221804 11.7023 0 11.1719 0H7.17188C6.64144 0 6.13273 0.221804 5.75766 0.616617C5.38259 1.01143 5.17188 1.54691 5.17188 2.10526V4.21053H1.17188C0.906659 4.21053 0.652305 4.32143 0.464768 4.51884C0.277232 4.71624 0.171875 4.98398 0.171875 5.26316C0.171875 5.54233 0.277232 5.81007 0.464768 6.00748C0.652305 6.20489 0.906659 6.31579 1.17188 6.31579H2.17188V17.8947C2.17188 18.4531 2.38259 18.9886 2.75766 19.3834C3.13273 19.7782 3.64144 20 4.17188 20H14.1719C14.7023 20 15.211 19.7782 15.5861 19.3834C15.9612 18.9886 16.1719 18.4531 16.1719 17.8947V6.31579H17.1719C17.4371 6.31579 17.6914 6.20489 17.879 6.00748C18.0665 5.81007 18.1719 5.54233 18.1719 5.26316C18.1719 4.98398 18.0665 4.71624 17.879 4.51884C17.6914 4.32143 17.4371 4.21053 17.1719 4.21053ZM7.17188 2.10526H11.1719V4.21053H7.17188V2.10526ZM8.17188 15.7895C8.17188 16.0686 8.06652 16.3364 7.87898 16.5338C7.69145 16.7312 7.43709 16.8421 7.17188 16.8421C6.90666 16.8421 6.6523 16.7312 6.46477 16.5338C6.27723 16.3364 6.17188 16.0686 6.17188 15.7895V8.42105C6.17188 8.14188 6.27723 7.87414 6.46477 7.67673C6.6523 7.47932 6.90666 7.36842 7.17188 7.36842C7.43709 7.36842 7.69145 7.47932 7.87898 7.67673C8.06652 7.87414 8.17188 8.14188 8.17188 8.42105V15.7895ZM12.1719 15.7895C12.1719 16.0686 12.0665 16.3364 11.879 16.5338C11.6914 16.7312 11.4371 16.8421 11.1719 16.8421C10.9067 16.8421 10.6523 16.7312 10.4648 16.5338C10.2772 16.3364 10.1719 16.0686 10.1719 15.7895V8.42105C10.1719 8.14188 10.2772 7.87414 10.4648 7.67673C10.6523 7.47932 10.9067 7.36842 11.1719 7.36842C11.4371 7.36842 11.6914 7.47932 11.879 7.67673C12.0665 7.87414 12.1719 8.14188 12.1719 8.42105V15.7895Z" fill="black"/>
</svg>
