<svg width="21" height="21" viewBox="0 0 21 21" fill="none" xmlns="http://www.w3.org/2000/svg">
<g clip-path="url(#clip0_381_13590)">
<path fill-rule="evenodd" clip-rule="evenodd" d="M14.5363 5.95673C13.5038 4.97198 12.1259 4.43552 10.7002 4.45756C8.09134 4.45756 5.87566 6.21761 5.08564 8.58761C4.66676 9.82956 4.66676 11.1745 5.08564 12.4164H5.08931C5.88299 14.7828 8.095 16.5428 10.7039 16.5428C12.0505 16.5428 13.2067 16.1984 14.1027 15.59V15.5875C15.1573 14.8893 15.8775 13.7907 16.1016 12.5487H10.7002V8.69791H20.1325C20.2501 9.36666 20.3052 10.0501 20.3052 10.7299C20.3052 13.7714 19.2182 16.3429 17.3269 18.0846L17.3289 18.0861C15.6717 19.6147 13.3972 20.5002 10.7002 20.5002C6.91918 20.5002 3.46153 18.369 1.76394 14.9922C0.345611 12.1666 0.345615 8.83752 1.76395 6.01188C3.46154 2.63139 6.91918 0.500186 10.7002 0.500186C13.1841 0.47079 15.5835 1.4041 17.3913 3.10169L14.5363 5.95673Z" fill="white"/>
</g>
<defs>
<clipPath id="clip0_381_13590">
<rect width="20" height="20" fill="white" transform="translate(0.5 0.5)"/>
</clipPath>
</defs>
</svg>
