<svg width="53" height="52" viewBox="0 0 53 52" fill="none" xmlns="http://www.w3.org/2000/svg">
<path d="M26.5 0C21.3577 0 16.3309 1.52487 12.0552 4.38179C7.77951 7.23871 4.44702 11.2993 2.47914 16.0502C0.511265 20.8011 -0.00362122 26.0288 0.999594 31.0723C2.00281 36.1158 4.47907 40.7486 8.11523 44.3848C11.7514 48.0209 16.3842 50.4972 21.4277 51.5004C26.4712 52.5036 31.6989 51.9887 36.4498 50.0209C41.2007 48.053 45.2613 44.7205 48.1182 40.4448C50.9751 36.1691 52.5 31.1423 52.5 26C52.4924 19.1067 49.7507 12.4979 44.8764 7.62358C40.0021 2.74928 33.3933 0.00757015 26.5 0ZM26.5 13C28.0427 13 29.5508 13.4575 30.8335 14.3145C32.1162 15.1716 33.1159 16.3898 33.7063 17.8151C34.2966 19.2403 34.4511 20.8086 34.1501 22.3217C33.8492 23.8348 33.1063 25.2246 32.0154 26.3154C30.9246 27.4063 29.5348 28.1492 28.0217 28.4501C26.5087 28.7511 24.9403 28.5966 23.5151 28.0063C22.0898 27.4159 20.8716 26.4161 20.0145 25.1334C19.1575 23.8507 18.7 22.3427 18.7 20.8C18.7 18.7313 19.5218 16.7473 20.9846 15.2846C22.4474 13.8218 24.4313 13 26.5 13ZM26.5 46.8C21.9219 46.805 17.4442 45.4592 13.6274 42.9312C13.9291 40.4172 15.1404 38.1006 17.0329 36.4184C18.9253 34.7362 21.368 33.8048 23.9 33.8H29.1C31.632 33.8048 34.0747 34.7362 35.9672 36.4184C37.8596 38.1006 39.071 40.4172 39.3726 42.9312C35.5559 45.4592 31.0781 46.805 26.5 46.8Z" fill="black"/>
</svg>
