<svg width="25" height="24" viewBox="0 0 25 24" fill="none" xmlns="http://www.w3.org/2000/svg">
<path d="M18.2743 15.0008C17.6004 15.0038 16.9489 15.2516 16.4337 15.7008C16.3799 15.6445 16.3205 15.5942 16.2564 15.551L9.19778 11.7285C9.12671 11.6974 9.05243 11.6749 8.9764 11.6614C8.98451 11.5751 9.0019 11.4924 9.0019 11.4049C9.0019 11.3941 9.0019 11.3845 9.0019 11.3749C9.0782 11.3667 9.15352 11.3506 9.22675 11.327L16.0721 8.28841C16.1399 8.25038 16.2037 8.20497 16.2622 8.15296C16.7434 8.63321 17.3705 8.92652 18.037 8.98315C18.7035 9.03978 19.3684 8.85624 19.919 8.46367C20.4696 8.0711 20.8719 7.49366 21.0578 6.82929C21.2436 6.16492 21.2015 5.45453 20.9386 4.81861C20.6757 4.18268 20.2082 3.66038 19.6154 3.34028C19.0225 3.02018 18.3409 2.922 17.6861 3.06239C17.0312 3.20278 16.4435 3.57309 16.0226 4.11051C15.6017 4.64794 15.3735 5.3194 15.3767 6.01099C15.3761 6.02097 15.3761 6.03098 15.3767 6.04096C15.3003 6.0496 15.225 6.06606 15.1518 6.0901L8.30647 9.12746C8.2388 9.16578 8.17511 9.21117 8.11639 9.26291C7.71584 8.85424 7.20915 8.57468 6.65787 8.4582C6.10659 8.34172 5.53447 8.39334 5.01102 8.60678C4.48758 8.82022 4.03535 9.1863 3.70929 9.66053C3.38323 10.1347 3.19737 10.6967 3.17432 11.2781C3.15126 11.8595 3.29199 12.4353 3.5794 12.9356C3.86681 13.4358 4.28853 13.8389 4.79332 14.096C5.29811 14.3531 5.86422 14.453 6.42287 14.3836C6.98152 14.3142 7.50865 14.0784 7.94021 13.7051C7.99399 13.7614 8.05344 13.8116 8.11754 13.8549L15.1761 17.6774C15.2458 17.7145 15.3193 17.7434 15.3952 17.7637C15.3952 17.8428 15.372 17.9195 15.372 18.0034C15.372 18.5961 15.542 19.1754 15.8604 19.6682C16.1788 20.161 16.6313 20.5451 17.1608 20.7719C17.6902 20.9987 18.2729 21.058 18.8349 20.9424C19.397 20.8268 19.9133 20.5414 20.3186 20.1223C20.7238 19.7032 20.9998 19.1693 21.1116 18.588C21.2234 18.0067 21.166 17.4042 20.9467 16.8566C20.7274 16.3091 20.356 15.8411 19.8795 15.5118C19.403 15.1825 18.8427 15.0068 18.2697 15.0068L18.2743 15.0008Z" fill="black"/>
</svg>
