<svg width="40" height="40" viewBox="0 0 40 40" fill="none" xmlns="http://www.w3.org/2000/svg">
<path d="M20.8199 4.18379L20.8204 4.18425L27.4837 11.0182C27.6961 11.2452 27.8156 11.5509 27.8129 11.8706C27.8101 12.1917 27.6845 12.4963 27.4667 12.7196C27.2494 12.9425 26.9581 13.0666 26.6563 13.0693C26.3557 13.072 26.0636 12.9541 25.843 12.737L22.0247 8.82096L21.1667 7.941V9.17002V23.8463C21.1667 24.1711 21.0408 24.4801 20.8206 24.706C20.6007 24.9314 20.3053 25.0557 20 25.0557C19.6948 25.0557 19.3993 24.9314 19.1795 24.706C18.9593 24.4801 18.8334 24.1711 18.8334 23.8463V9.17002V7.941L17.9754 8.82096L14.1537 12.7405L14.1535 12.7407C13.9336 12.9665 13.6381 13.0911 13.3325 13.0913C13.027 13.0915 12.7313 12.9674 12.5111 12.7419C12.2906 12.516 12.1643 12.2069 12.1641 11.8819C12.1639 11.557 12.2896 11.2478 12.5097 11.0216C12.5098 11.0215 12.5099 11.0214 12.5099 11.0213L19.1764 4.18425L19.1768 4.18379C19.2858 4.07175 19.4145 3.98355 19.5554 3.92361C19.6962 3.86368 19.8467 3.83301 19.9984 3.83301C20.15 3.83301 20.3005 3.86368 20.4414 3.92361C20.5822 3.98355 20.711 4.07175 20.8199 4.18379ZM25.5 23.8463V23.4917H33.3334C34.0807 23.4917 34.8 23.796 35.3324 24.342C35.8652 24.8885 36.1667 25.6322 36.1667 26.4103V33.2477C36.1667 34.0258 35.8652 34.7695 35.3324 35.316C34.8 35.862 34.0807 36.1663 33.3334 36.1663H6.66671C5.9194 36.1663 5.20006 35.862 4.66768 35.316C4.13488 34.7695 3.83337 34.0258 3.83337 33.2477V26.4103C3.83337 25.6322 4.13488 24.8885 4.66768 24.342C5.20006 23.796 5.9194 23.4917 6.66671 23.4917H14.5V23.8463C14.5 25.335 15.0765 26.7651 16.1065 27.8214C17.1369 28.8782 18.5372 29.4743 20 29.4743C21.4629 29.4743 22.8631 28.8782 23.8936 27.8214C24.9236 26.7651 25.5 25.335 25.5 23.8463ZM27.4951 33.228C27.9888 33.5663 28.5705 33.7477 29.1667 33.7477C29.9665 33.7477 30.7309 33.4217 31.2925 32.8458C31.8536 32.2702 32.1667 31.4923 32.1667 30.6837C32.1667 30.0805 31.9924 29.4898 31.6643 28.9863C31.3362 28.4826 30.8685 28.0881 30.3189 27.8547C29.7692 27.6211 29.1635 27.5598 28.579 27.679C27.9947 27.7983 27.4597 28.0922 27.041 28.5216C26.6224 28.9509 26.3387 29.4963 26.2239 30.0883C26.1091 30.6802 26.1679 31.2938 26.3934 31.8521C26.6189 32.4105 27.0017 32.8898 27.4951 33.228Z" fill="#000" stroke="#000"/>
</svg>
